{
  "asset": {
    "version": "2.0",
    "generator": "THREE.GLTFExporter r169"
  },
  "scenes": [
    {
      "name": "Scene",
      "nodes": [
        9
      ]
    }
  ],
  "scene": 0,
  "nodes": [
    {
      "name": "Object_4",
      "extras": {
        "name": "Object_4"
      },
      "mesh": 0
    },
    {
      "matrix": [
        0.4159286320209503,
        0,
        0,
        0,
        0,
        0.4159286320209503,
        0,
        0,
        0,
        0,
        0.4159286320209503,
        0,
        -0.0018664736999198794,
        0.5819626450538635,
        -0.043492190539836884,
        1
      ],
      "name": "Cube015_0",
      "extras": {
        "name": "Cube.015_0"
      },
      "children": [
        0
      ]
    },
    {
      "name": "Object_6",
      "extras": {
        "name": "Object_6"
      },
      "mesh": 1
    },
    {
      "matrix": [
        0.4159286320209503,
        0,
        0,
        0,
        0,
        0.4159286320209503,
        0,
        0,
        0,
        0,
        0.4159286320209503,
        0,
        -0.0018664736999198794,
        0.8720458745956421,
        0.4547969698905945,
        1
      ],
      "name": "Cube012_1",
      "extras": {
        "name": "Cube.012_1"
      },
      "children": [
        2
      ]
    },
    {
      "name": "Object_8",
      "extras": {
        "name": "Object_8"
      },
      "mesh": 2
    },
    {
      "matrix": [
        0.4159286320209503,
        0,
        0,
        0,
        0,
        0.4159286320209503,
        0,
        0,
        0,
        0,
        0.4159286320209503,
        0,
        -0.0018664736999198794,
        0.7768082618713379,
        0.44867804646492004,
        1
      ],
      "name": "Cube013_2",
      "extras": {
        "name": "Cube.013_2"
      },
      "children": [
        4
      ]
    },
    {
      "matrix": [
        1,
        0,
        0,
        0,
        0,
        2.220446049250313e-16,
        1,
        0,
        0,
        -1,
        2.220446049250313e-16,
        0,
        0,
        0,
        0,
        1
      ],
      "name": "GLTF_SceneRootNode",
      "extras": {
        "name": "GLTF_SceneRootNode"
      },
      "children": [
        1,
        3,
        5
      ]
    },
    {
      "name": "root",
      "extras": {
        "name": "root"
      },
      "children": [
        6
      ]
    },
    {
      "matrix": [
        1,
        0,
        0,
        0,
        0,
        2.220446049250313e-16,
        -1,
        0,
        0,
        1,
        2.220446049250313e-16,
        0,
        0,
        0,
        0,
        1
      ],
      "name": "Sketchfab_model",
      "extras": {
        "name": "Sketchfab_model"
      },
      "children": [
        7
      ]
    },
    {
      "name": "yellow_rubber_duck.glb",
      "children": [
        8
      ]
    }
  ],
  "bufferViews": [
    {
      "buffer": 0,
      "byteOffset": 0,
      "byteLength": 11592,
      "target": 34962,
      "byteStride": 12
    },
    {
      "buffer": 0,
      "byteOffset": 11592,
      "byteLength": 11592,
      "target": 34962,
      "byteStride": 12
    },
    {
      "buffer": 0,
      "byteOffset": 23184,
      "byteLength": 7728,
      "target": 34962,
      "byteStride": 8
    },
    {
      "buffer": 0,
      "byteOffset": 30912,
      "byteLength": 15360,
      "target": 34963
    },
    {
      "buffer": 0,
      "byteOffset": 46272,
      "byteLength": 2160,
      "target": 34962,
      "byteStride": 12
    },
    {
      "buffer": 0,
      "byteOffset": 48432,
      "byteLength": 2160,
      "target": 34962,
      "byteStride": 12
    },
    {
      "buffer": 0,
      "byteOffset": 50592,
      "byteLength": 1440,
      "target": 34962,
      "byteStride": 8
    },
    {
      "buffer": 0,
      "byteOffset": 52032,
      "byteLength": 2304,
      "target": 34963
    },
    {
      "buffer": 0,
      "byteOffset": 54336,
      "byteLength": 1356,
      "target": 34962,
      "byteStride": 12
    },
    {
      "buffer": 0,
      "byteOffset": 55692,
      "byteLength": 1356,
      "target": 34962,
      "byteStride": 12
    },
    {
      "buffer": 0,
      "byteOffset": 57048,
      "byteLength": 904,
      "target": 34962,
      "byteStride": 8
    },
    {
      "buffer": 0,
      "byteOffset": 57952,
      "byteLength": 1440,
      "target": 34963
    }
  ],
  "buffers": [
    {
      "byteLength": 59392,
      "uri": "data:application/octet-stream;base64,"
    }
  ],
  "accessors": [
    {
      "bufferView": 0,
      "componentType": 5126,
      "count": 966,
      "max": [
        0.9998914003372192,
        0.9998555183410645,
        0.9998905658721924
      ],
      "min": [
        -0.9998914003372192,
        -0.9999338984489441,
        -0.9999890327453613
      ],
      "type": "VEC3"
    },
    {
      "bufferView": 1,
      "componentType": 5126,
      "count": 966,
      "max": [
        1.274198055267334,
        1.6161495447158813,
        1.5030443668365479
      ],
      "min": [
        -1.2741979360580444,
        -1.3752020597457886,
        -2.1180949211120605
      ],
      "type": "VEC3"
    },
    {
      "bufferView": 2,
      "componentType": 5126,
      "count": 966,
      "max": [
        0.985968291759491,
        0.9994572401046753
      ],
      "min": [
        0.0005427378928288817,
        0.0005428791046142578
      ],
      "type": "VEC2"
    },
    {
      "bufferView": 3,
      "componentType": 5125,
      "count": 3840,
      "max": [
        965
      ],
      "min": [
        0
      ],
      "type": "SCALAR"
    },
    {
      "bufferView": 4,
      "componentType": 5126,
      "count": 180,
      "max": [
        0.9577478170394897,
        0.8693365454673767,
        0.9529244899749756
      ],
      "min": [
        -0.9577478170394897,
        -0.9919557571411133,
        -0.9999727010726929
      ],
      "type": "VEC3"
    },
    {
      "bufferView": 5,
      "componentType": 5126,
      "count": 180,
      "max": [
        0.41350167989730835,
        0.24606460332870483,
        0.3433164358139038
      ],
      "min": [
        -0.41350167989730835,
        -0.15987372398376465,
        -0.18135666847229004
      ],
      "type": "VEC3"
    },
    {
      "bufferView": 6,
      "componentType": 5126,
      "count": 180,
      "max": [
        0.9806626439094543,
        0.7409494519233704
      ],
      "min": [
        0.06026959791779518,
        0.005007028579711914
      ],
      "type": "VEC2"
    },
    {
      "bufferView": 7,
      "componentType": 5125,
      "count": 576,
      "max": [
        179
      ],
      "min": [
        0
      ],
      "type": "SCALAR"
    },
    {
      "bufferView": 8,
      "componentType": 5126,
      "count": 113,
      "max": [
        0.9049767851829529,
        0.999549925327301,
        0.9429977536201477
      ],
      "min": [
        -0.9049767851829529,
        -0.9768784642219543,
        -0.981687605381012
      ],
      "type": "VEC3"
    },
    {
      "bufferView": 9,
      "componentType": 5126,
      "count": 113,
      "max": [
        0.3600950837135315,
        0.08777028322219849,
        0.31738197803497314
      ],
      "min": [
        -0.3600950837135315,
        -0.1295914649963379,
        -0.20596766471862793
      ],
      "type": "VEC3"
    },
    {
      "bufferView": 10,
      "componentType": 5126,
      "count": 113,
      "max": [
        0.9928362965583801,
        0.9945580959320068
      ],
      "min": [
        0.00718146376311779,
        0.008733987808227539
      ],
      "type": "VEC2"
    },
    {
      "bufferView": 11,
      "componentType": 5125,
      "count": 360,
      "max": [
        112
      ],
      "min": [
        0
      ],
      "type": "SCALAR"
    }
  ],
  "materials": [
    {
      "pbrMetallicRoughness": {
        "metallicFactor": 0,
        "roughnessFactor": 0.9,
        "baseColorTexture": {
          "index": 0,
          "texCoord": 0
        }
      },
      "doubleSided": true,
      "name": "Yellow_texture"
    }
  ],
  "textures": [
    {
      "sampler": 0,
      "source": 0
    }
  ],
  "samplers": [
    {
      "magFilter": 9729,
      "minFilter": 9987,
      "wrapS": 10497,
      "wrapT": 10497
    }
  ],
  "images": [
    {
      "mimeType": "image/jpeg",
      "uri": "data:image/jpeg;base64,"
    }
  ],
  "meshes": [
    {
      "primitives": [
        {
          "mode": 4,
          "attributes": {
            "NORMAL": 0,
            "POSITION": 1,
            "TEXCOORD_0": 2
          },
          "indices": 3,
          "material": 0
        }
      ]
    },
    {
      "primitives": [
        {
          "mode": 4,
          "attributes": {
            "NORMAL": 4,
            "POSITION": 5,
            "TEXCOORD_0": 6
          },
          "indices": 7,
          "material": 0
        }
      ]
    },
    {
      "primitives": [
        {
          "mode": 4,
          "attributes": {
            "NORMAL": 8,
            "POSITION": 9,
            "TEXCOORD_0": 10
          },
          "indices": 11,
          "material": 0
        }
      ]
    }
  ]
}